<svg width="0" height="0" class="hidden">
  <symbol fill="none" xmlns="http://www.w3.org/2000/svg" viewBox="0 0 24 24" id="close">
    <path d="M20.7457 3.32851C20.3552 2.93798 19.722 2.93798 19.3315 3.32851L12.0371 10.6229L4.74275 3.32851C4.35223 2.93798 3.71906 2.93798 3.32854 3.32851C2.93801 3.71903 2.93801 4.3522 3.32854 4.74272L10.6229 12.0371L3.32856 19.3314C2.93803 19.722 2.93803 20.3551 3.32856 20.7457C3.71908 21.1362 4.35225 21.1362 4.74277 20.7457L12.0371 13.4513L19.3315 20.7457C19.722 21.1362 20.3552 21.1362 20.7457 20.7457C21.1362 20.3551 21.1362 19.722 20.7457 19.3315L13.4513 12.0371L20.7457 4.74272C21.1362 4.3522 21.1362 3.71903 20.7457 3.32851Z" fill="#0F0F0F"></path>
  </symbol>
  <symbol fill="#000000" version="1.1" id="linkedin" xmlns="http://www.w3.org/2000/svg" xmlns:xlink="http://www.w3.org/1999/xlink" xml:space="preserve" viewBox="-143 145 512 512">
    <path d="M113,145c-141.4,0-256,114.6-256,256s114.6,256,256,256s256-114.6,256-256S254.4,145,113,145z M41.4,508.1H-8.5V348.4h49.9
	V508.1z M15.1,328.4h-0.4c-18.1,0-29.8-12.2-29.8-27.7c0-15.8,12.1-27.7,30.5-27.7c18.4,0,29.7,11.9,30.1,27.7
	C45.6,316.1,33.9,328.4,15.1,328.4z M241,508.1h-56.6v-82.6c0-21.6-8.8-36.4-28.3-36.4c-14.9,0-23.2,10-27,19.6
	c-1.4,3.4-1.2,8.2-1.2,13.1v86.3H71.8c0,0,0.7-146.4,0-159.7h56.1v25.1c3.3-11,21.2-26.6,49.8-26.6c35.5,0,63.3,23,63.3,72.4V508.1z
	"></path>
  </symbol>
  <symbol fill="#000000" version="1.1" id="facebook" xmlns="http://www.w3.org/2000/svg" xmlns:xlink="http://www.w3.org/1999/xlink" xml:space="preserve" viewBox="-143 145 512 512">
    <path d="M113,145c-141.4,0-256,114.6-256,256s114.6,256,256,256s256-114.6,256-256S254.4,145,113,145z M169.5,357.6l-2.9,38.3h-39.3
	v133H77.7v-133H51.2v-38.3h26.5v-25.7c0-11.3,0.3-28.8,8.5-39.7c8.7-11.5,20.6-19.3,41.1-19.3c33.4,0,47.4,4.8,47.4,4.8l-6.6,39.2
	c0,0-11-3.2-21.3-3.2c-10.3,0-19.5,3.7-19.5,14v29.9H169.5z"></path>
  </symbol>
  <symbol fill="#000000" version="1.1" id="instagram-" xmlns="http://www.w3.org/2000/svg" xmlns:xlink="http://www.w3.org/1999/xlink" xml:space="preserve" viewBox="-143 145 512 512">
    <g>
      <path d="M113,446c24.8,0,45.1-20.2,45.1-45.1c0-9.8-3.2-18.9-8.5-26.3c-8.2-11.3-21.5-18.8-36.5-18.8s-28.3,7.4-36.5,18.8
		c-5.3,7.4-8.5,16.5-8.5,26.3C68,425.8,88.2,446,113,446z"></path>
      <polygon points="211.4,345.9 211.4,308.1 211.4,302.5 205.8,302.5 168,302.6 168.2,346 	"></polygon>
      <path d="M183,401c0,38.6-31.4,70-70,70c-38.6,0-70-31.4-70-70c0-9.3,1.9-18.2,5.2-26.3H10v104.8C10,493,21,504,34.5,504h157
		c13.5,0,24.5-11,24.5-24.5V374.7h-38.2C181.2,382.8,183,391.7,183,401z"></path>
      <path d="M113,145c-141.4,0-256,114.6-256,256s114.6,256,256,256s256-114.6,256-256S254.4,145,113,145z M241,374.7v104.8
		c0,27.3-22.2,49.5-49.5,49.5h-157C7.2,529-15,506.8-15,479.5V374.7v-52.3c0-27.3,22.2-49.5,49.5-49.5h157
		c27.3,0,49.5,22.2,49.5,49.5V374.7z"></path>
    </g>
  </symbol>
  <symbol fill="none" xmlns="http://www.w3.org/2000/svg" viewBox="0 0 24 24" id="email">
    <g id="style=fill">
      <g id="email">
        <path id="Subtract" fill-rule="evenodd" clip-rule="evenodd" d="M7 2.75C5.38503 2.75 3.92465 3.15363 2.86466 4.1379C1.79462 5.13152 1.25 6.60705 1.25 8.5V15.5C1.25 17.393 1.79462 18.8685 2.86466 19.8621C3.92465 20.8464 5.38503 21.25 7 21.25H17C18.615 21.25 20.0754 20.8464 21.1353 19.8621C22.2054 18.8685 22.75 17.393 22.75 15.5V8.5C22.75 6.60705 22.2054 5.13152 21.1353 4.1379C20.0754 3.15363 18.615 2.75 17 2.75H7ZM19.2285 8.3623C19.5562 8.10904 19.6166 7.63802 19.3633 7.31026C19.1101 6.98249 18.6391 6.9221 18.3113 7.17537L12.7642 11.4616C12.3141 11.8095 11.6858 11.8095 11.2356 11.4616L5.6886 7.17537C5.36083 6.9221 4.88982 6.98249 4.63655 7.31026C4.38328 7.63802 4.44367 8.10904 4.77144 8.3623L10.3185 12.6486C11.3089 13.4138 12.691 13.4138 13.6814 12.6486L19.2285 8.3623Z" fill="#000000"></path>
      </g>
    </g>
  </symbol>
  <symbol version="1.1" xmlns="http://www.w3.org/2000/svg" xmlns:xlink="http://www.w3.org/1999/xlink" viewBox="0 0 20 20" id="github">
    <title>github [#142]</title>
    <desc>Created with Sketch.</desc>
    <defs></defs>
    <g id="Page-1" stroke="none" stroke-width="1" fill="none" fill-rule="evenodd">
      <g id="Dribbble-Light-Preview" transform="translate(-140.000000, -7559.000000)" fill="#000000">
        <g id="icons" transform="translate(56.000000, 160.000000)">
          <path d="M94,7399 C99.523,7399 104,7403.59 104,7409.253 C104,7413.782 101.138,7417.624 97.167,7418.981 C96.66,7419.082 96.48,7418.762 96.48,7418.489 C96.48,7418.151 96.492,7417.047 96.492,7415.675 C96.492,7414.719 96.172,7414.095 95.813,7413.777 C98.04,7413.523 100.38,7412.656 100.38,7408.718 C100.38,7407.598 99.992,7406.684 99.35,7405.966 C99.454,7405.707 99.797,7404.664 99.252,7403.252 C99.252,7403.252 98.414,7402.977 96.505,7404.303 C95.706,7404.076 94.85,7403.962 94,7403.958 C93.15,7403.962 92.295,7404.076 91.497,7404.303 C89.586,7402.977 88.746,7403.252 88.746,7403.252 C88.203,7404.664 88.546,7405.707 88.649,7405.966 C88.01,7406.684 87.619,7407.598 87.619,7408.718 C87.619,7412.646 89.954,7413.526 92.175,7413.785 C91.889,7414.041 91.63,7414.493 91.54,7415.156 C90.97,7415.418 89.522,7415.871 88.63,7414.304 C88.63,7414.304 88.101,7413.319 87.097,7413.247 C87.097,7413.247 86.122,7413.234 87.029,7413.87 C87.029,7413.87 87.684,7414.185 88.139,7415.37 C88.139,7415.37 88.726,7417.2 91.508,7416.58 C91.513,7417.437 91.522,7418.245 91.522,7418.489 C91.522,7418.76 91.338,7419.077 90.839,7418.982 C86.865,7417.627 84,7413.783 84,7409.253 C84,7403.59 88.478,7399 94,7399" id="github-[#142]"></path>
        </g>
      </g>
    </g>
  </symbol>
  <symbol fill="none" xmlns="http://www.w3.org/2000/svg" viewBox="-0.5 0 25 25" id="hamburger">
    <path d="M2 12.32H22" stroke="#000000" stroke-width="1.5" stroke-linecap="round" stroke-linejoin="round"></path>
    <path d="M2 18.32H22" stroke="#000000" stroke-width="1.5" stroke-linecap="round" stroke-linejoin="round"></path>
    <path d="M2 6.32001H22" stroke="#000000" stroke-width="1.5" stroke-linecap="round" stroke-linejoin="round"></path>
  </symbol>
</svg>